<svg width="388" height="58" viewBox="0 0 388 58" fill="none" xmlns="http://www.w3.org/2000/svg">
<path d="M17.0369 57.9711C17.0369 57.9711 -1.86658 44.1081 19.559 27.7321C21.3342 26.463 22.7376 24.7422 23.6239 22.7481C24.5102 20.754 24.847 18.5592 24.5995 16.3911C24.5995 16.3911 -13.2058 32.7634 17.0369 57.9656" fill="white"/>
<path d="M10.7328 52.9302C-20.7737 20.1636 27.1161 0 27.1161 0C27.1161 0 28.378 11.341 15.7751 20.16C-5.64683 36.5469 10.7328 52.9302 10.7328 52.9302Z" fill="white"/>
<path d="M12.7522 52.7665C12.7522 52.7665 7.98589 43.9366 18.0686 37.6415C21.8471 35.1213 21.8471 28.8115 21.8471 28.8115C21.8471 28.8115 3.11469 36.3133 12.7522 52.7665Z" fill="white"/>
<path d="M72.1748 13.6262V32.5981C72.1748 35.231 71.3624 37.283 69.7377 38.7543C68.113 40.1998 65.9375 40.9226 63.2113 40.9226C60.4576 40.9226 58.227 40.174 56.5197 38.6769C54.8399 37.1798 54 35.089 54 32.4045H59.7829C59.8104 33.5661 60.0996 34.4695 60.6503 35.1148C61.2286 35.7601 62.0547 36.0828 63.1287 36.0828C64.1751 36.0828 64.9737 35.773 65.5245 35.1535C66.0752 34.534 66.3506 33.6822 66.3506 32.5981V13.6262H72.1748Z" fill="white"/>
<path d="M101.846 29.4619C101.846 30.2363 101.791 30.9332 101.68 31.5527H84.9514C85.0891 33.1015 85.6673 34.3146 86.6862 35.1923C87.7051 36.0699 88.9581 36.5087 90.4451 36.5087C92.593 36.5087 94.1214 35.644 95.0301 33.9146H101.267C100.606 35.9795 99.3398 37.6831 97.4672 39.0254C95.5946 40.3418 93.2953 41 90.569 41C88.366 41 86.3833 40.5483 84.6209 39.6449C82.8861 38.7156 81.5229 37.4121 80.5316 35.7343C79.5678 34.0565 79.0859 32.1206 79.0859 29.9266C79.0859 27.7067 79.5678 25.7579 80.5316 24.0801C81.4954 22.4023 82.8447 21.1117 84.5796 20.2083C86.3145 19.3049 88.311 18.8531 90.569 18.8531C92.7445 18.8531 94.6859 19.2919 96.3932 20.1696C98.1281 21.0472 99.4637 22.2991 100.4 23.9252C101.364 25.5256 101.846 27.3712 101.846 29.4619ZM95.8562 27.9132C95.8287 26.5194 95.2917 25.4094 94.2453 24.5834C93.1989 23.7316 91.9184 23.3057 90.4038 23.3057C88.9719 23.3057 87.7602 23.7187 86.7689 24.5447C85.805 25.3449 85.213 26.4677 84.9927 27.9132H95.8562Z" fill="white"/>
<path d="M128.992 29.4619C128.992 30.2363 128.937 30.9332 128.826 31.5527H112.097C112.235 33.1015 112.813 34.3146 113.832 35.1923C114.851 36.0699 116.104 36.5087 117.591 36.5087C119.739 36.5087 121.267 35.644 122.176 33.9146H128.413C127.753 35.9795 126.486 37.6831 124.613 39.0254C122.741 40.3418 120.441 41 117.715 41C115.512 41 113.529 40.5483 111.767 39.6449C110.032 38.7156 108.669 37.4121 107.678 35.7343C106.714 34.0565 106.232 32.1206 106.232 29.9266C106.232 27.7067 106.714 25.7579 107.678 24.0801C108.641 22.4023 109.991 21.1117 111.726 20.2083C113.461 19.3049 115.457 18.8531 117.715 18.8531C119.891 18.8531 121.832 19.2919 123.539 20.1696C125.274 21.0472 126.61 22.2991 127.546 23.9252C128.51 25.5256 128.992 27.3712 128.992 29.4619ZM123.002 27.9132C122.975 26.5194 122.438 25.4094 121.391 24.5834C120.345 23.7316 119.064 23.3057 117.55 23.3057C116.118 23.3057 114.906 23.7187 113.915 24.5447C112.951 25.3449 112.359 26.4677 112.139 27.9132H123.002Z" fill="white"/>
<path d="M144.407 35.6569L150.19 19.2016H156.344L147.876 40.6515H140.854L132.428 19.2016H138.624L144.407 35.6569Z" fill="white"/>
<path d="M159.758 29.8491C159.758 27.6809 160.212 25.7579 161.121 24.0801C162.057 22.4023 163.31 21.1117 164.88 20.2083C166.477 19.3049 168.253 18.8531 170.208 18.8531C171.915 18.8531 173.402 19.1758 174.669 19.8211C175.963 20.4664 176.996 21.2795 177.767 22.2603V19.2016H183.591V40.6515H177.767V37.5154C177.024 38.522 175.991 39.3609 174.669 40.032C173.375 40.6773 171.874 41 170.167 41C168.239 41 166.477 40.5354 164.88 39.6061C163.31 38.6769 162.057 37.3734 161.121 35.6956C160.212 33.992 159.758 32.0432 159.758 29.8491ZM177.767 29.9266C177.767 28.6101 177.492 27.4873 176.941 26.5581C176.39 25.603 175.647 24.8803 174.71 24.3899C173.774 23.8736 172.769 23.6155 171.695 23.6155C170.621 23.6155 169.63 23.8607 168.721 24.3511C167.812 24.8416 167.069 25.5643 166.49 26.5194C165.94 27.4486 165.664 28.5585 165.664 29.8491C165.664 31.1397 165.94 32.2755 166.49 33.2563C167.069 34.2114 167.812 34.947 168.721 35.4633C169.657 35.9795 170.649 36.2376 171.695 36.2376C172.769 36.2376 173.774 35.9924 174.71 35.502C175.647 34.9858 176.39 34.263 176.941 33.3338C177.492 32.3787 177.767 31.243 177.767 29.9266Z" fill="white"/>
<path d="M219.31 18.8919C222.119 18.8919 224.377 19.7049 226.085 21.3311C227.819 22.9315 228.687 25.1771 228.687 28.0681V40.6515H222.904V28.8037C222.904 27.1259 222.45 25.8482 221.541 24.9706C220.632 24.0672 219.393 23.6155 217.823 23.6155C216.254 23.6155 215.001 24.0672 214.064 24.9706C213.156 25.8482 212.701 27.1259 212.701 28.8037V40.6515H206.918V28.8037C206.918 27.1259 206.464 25.8482 205.555 24.9706C204.647 24.0672 203.407 23.6155 201.838 23.6155C200.241 23.6155 198.974 24.0672 198.038 24.9706C197.129 25.8482 196.674 27.1259 196.674 28.8037V40.6515H190.892V19.2016H196.674V21.7957C197.418 20.8923 198.368 20.1825 199.525 19.6662C200.709 19.15 202.003 18.8919 203.407 18.8919C205.197 18.8919 206.794 19.2532 208.199 19.976C209.603 20.6729 210.691 21.6796 211.462 22.996C212.206 21.757 213.28 20.7632 214.684 20.0147C216.116 19.2661 217.658 18.8919 219.31 18.8919Z" fill="white"/>
<path d="M271.238 13.6262V40.6515H265.455V29.1522H253.104V40.6515H247.321V13.6262H253.104V24.7383H265.455V13.6262H271.238Z" fill="white"/>
<path d="M299.855 29.4619C299.855 30.2363 299.8 30.9332 299.69 31.5527H282.96C283.098 33.1015 283.676 34.3146 284.695 35.1923C285.714 36.0699 286.967 36.5087 288.454 36.5087C290.602 36.5087 292.131 35.644 293.039 33.9146H299.277C298.616 35.9795 297.349 37.6831 295.476 39.0254C293.604 40.3418 291.304 41 288.578 41C286.375 41 284.392 40.5483 282.63 39.6449C280.895 38.7156 279.532 37.4121 278.541 35.7343C277.577 34.0565 277.095 32.1206 277.095 29.9266C277.095 27.7067 277.577 25.7579 278.541 24.0801C279.505 22.4023 280.854 21.1117 282.589 20.2083C284.324 19.3049 286.32 18.8531 288.578 18.8531C290.754 18.8531 292.695 19.2919 294.402 20.1696C296.137 21.0472 297.473 22.2991 298.409 23.9252C299.373 25.5256 299.855 27.3712 299.855 29.4619ZM293.865 27.9132C293.838 26.5194 293.301 25.4094 292.254 24.5834C291.208 23.7316 289.928 23.3057 288.413 23.3057C286.981 23.3057 285.769 23.7187 284.778 24.5447C283.814 25.3449 283.222 26.4677 283.002 27.9132H293.865Z" fill="white"/>
<path d="M304.241 29.8491C304.241 27.6809 304.695 25.7579 305.604 24.0801C306.54 22.4023 307.793 21.1117 309.363 20.2083C310.96 19.3049 312.736 18.8531 314.692 18.8531C316.399 18.8531 317.886 19.1758 319.153 19.8211C320.447 20.4664 321.48 21.2795 322.251 22.2603V19.2016H328.075V40.6515H322.251V37.5154C321.507 38.522 320.474 39.3609 319.153 40.032C317.858 40.6773 316.358 41 314.65 41C312.723 41 310.96 40.5354 309.363 39.6061C307.793 38.6769 306.54 37.3734 305.604 35.6956C304.695 33.992 304.241 32.0432 304.241 29.8491ZM322.251 29.9266C322.251 28.6101 321.975 27.4873 321.424 26.5581C320.874 25.603 320.13 24.8803 319.194 24.3899C318.258 23.8736 317.253 23.6155 316.179 23.6155C315.105 23.6155 314.113 23.8607 313.204 24.3511C312.296 24.8416 311.552 25.5643 310.974 26.5194C310.423 27.4486 310.148 28.5585 310.148 29.8491C310.148 31.1397 310.423 32.2755 310.974 33.2563C311.552 34.2114 312.296 34.947 313.204 35.4633C314.141 35.9795 315.132 36.2376 316.179 36.2376C317.253 36.2376 318.258 35.9924 319.194 35.502C320.13 34.9858 320.874 34.263 321.424 33.3338C321.975 32.3787 322.251 31.243 322.251 29.9266Z" fill="white"/>
<path d="M341.158 12V40.6515H335.375V12H341.158Z" fill="white"/>
<path d="M355.257 23.6542V34.0307C355.257 34.7534 355.436 35.2826 355.794 35.6182C356.179 35.9279 356.813 36.0828 357.694 36.0828H360.379V40.6515H356.744C351.87 40.6515 349.432 38.4317 349.432 33.992V23.6542H346.706V19.2016H349.432V13.8972H355.257V19.2016H360.379V23.6542H355.257Z" fill="white"/>
<path d="M379.078 18.8919C380.813 18.8919 382.355 19.2532 383.704 19.976C385.053 20.6729 386.1 21.7183 386.843 23.1121C387.614 24.4802 388 26.1322 388 28.0681V40.6515H382.217V28.8037C382.217 27.1001 381.763 25.7966 380.854 24.8932C379.945 23.964 378.706 23.4993 377.136 23.4993C375.539 23.4993 374.273 23.964 373.336 24.8932C372.427 25.7966 371.973 27.1001 371.973 28.8037V40.6515H366.19V12H371.973V21.8732C372.717 20.9439 373.708 20.2212 374.947 19.7049C376.186 19.1629 377.563 18.8919 379.078 18.8919Z" fill="white"/>
</svg>
