<svg width="413" height="280" viewBox="0 0 413 280" fill="none" xmlns="http://www.w3.org/2000/svg">
<rect x="0.570312" y="0.5" width="411" height="279" fill="#F5F5F5" stroke="#F4F5F7"/>
<path d="M166.977 188.436V201H164.457V195.654H159.075V201H156.555V188.436H159.075V193.602H164.457V188.436H166.977ZM178.728 195.798C178.728 196.158 178.704 196.482 178.656 196.77H171.366C171.426 197.49 171.678 198.054 172.122 198.462C172.566 198.87 173.112 199.074 173.76 199.074C174.696 199.074 175.362 198.672 175.758 197.868H178.476C178.188 198.828 177.636 199.62 176.82 200.244C176.004 200.856 175.002 201.162 173.814 201.162C172.854 201.162 171.99 200.952 171.222 200.532C170.466 200.1 169.872 199.494 169.44 198.714C169.02 197.934 168.81 197.034 168.81 196.014C168.81 194.982 169.02 194.076 169.44 193.296C169.86 192.516 170.448 191.916 171.204 191.496C171.96 191.076 172.83 190.866 173.814 190.866C174.762 190.866 175.608 191.07 176.352 191.478C177.108 191.886 177.69 192.468 178.098 193.224C178.518 193.968 178.728 194.826 178.728 195.798ZM176.118 195.078C176.106 194.43 175.872 193.914 175.416 193.53C174.96 193.134 174.402 192.936 173.742 192.936C173.118 192.936 172.59 193.128 172.158 193.512C171.738 193.884 171.48 194.406 171.384 195.078H176.118ZM179.919 195.978C179.919 194.97 180.117 194.076 180.513 193.296C180.921 192.516 181.467 191.916 182.151 191.496C182.847 191.076 183.621 190.866 184.473 190.866C185.217 190.866 185.865 191.016 186.417 191.316C186.981 191.616 187.431 191.994 187.767 192.45V191.028H190.305V201H187.767V199.542C187.443 200.01 186.993 200.4 186.417 200.712C185.853 201.012 185.199 201.162 184.455 201.162C183.615 201.162 182.847 200.946 182.151 200.514C181.467 200.082 180.921 199.476 180.513 198.696C180.117 197.904 179.919 196.998 179.919 195.978ZM187.767 196.014C187.767 195.402 187.647 194.88 187.407 194.448C187.167 194.004 186.843 193.668 186.435 193.44C186.027 193.2 185.589 193.08 185.121 193.08C184.653 193.08 184.221 193.194 183.825 193.422C183.429 193.65 183.105 193.986 182.853 194.43C182.613 194.862 182.493 195.378 182.493 195.978C182.493 196.578 182.613 197.106 182.853 197.562C183.105 198.006 183.429 198.348 183.825 198.588C184.233 198.828 184.665 198.948 185.121 198.948C185.589 198.948 186.027 198.834 186.435 198.606C186.843 198.366 187.167 198.03 187.407 197.598C187.647 197.154 187.767 196.626 187.767 196.014ZM195.286 187.68V201H192.766V187.68H195.286ZM200.71 193.098V197.922C200.71 198.258 200.788 198.504 200.944 198.66C201.112 198.804 201.388 198.876 201.772 198.876H202.942V201H201.358C199.234 201 198.172 199.968 198.172 197.904V193.098H196.984V191.028H198.172V188.562H200.71V191.028H202.942V193.098H200.71ZM210.371 190.884C211.127 190.884 211.799 191.052 212.387 191.388C212.975 191.712 213.431 192.198 213.755 192.846C214.091 193.482 214.259 194.25 214.259 195.15V201H211.739V195.492C211.739 194.7 211.541 194.094 211.145 193.674C210.749 193.242 210.209 193.026 209.525 193.026C208.829 193.026 208.277 193.242 207.869 193.674C207.473 194.094 207.275 194.7 207.275 195.492V201H204.755V187.68H207.275V192.27C207.599 191.838 208.031 191.502 208.571 191.262C209.111 191.01 209.711 190.884 210.371 190.884ZM216.007 196.014C216.007 194.982 216.217 194.082 216.637 193.314C217.057 192.534 217.639 191.934 218.383 191.514C219.127 191.082 219.979 190.866 220.939 190.866C222.175 190.866 223.195 191.178 223.999 191.802C224.815 192.414 225.361 193.278 225.637 194.394H222.919C222.775 193.962 222.529 193.626 222.181 193.386C221.845 193.134 221.425 193.008 220.921 193.008C220.201 193.008 219.631 193.272 219.211 193.8C218.791 194.316 218.581 195.054 218.581 196.014C218.581 196.962 218.791 197.7 219.211 198.228C219.631 198.744 220.201 199.002 220.921 199.002C221.941 199.002 222.607 198.546 222.919 197.634H225.637C225.361 198.714 224.815 199.572 223.999 200.208C223.183 200.844 222.163 201.162 220.939 201.162C219.979 201.162 219.127 200.952 218.383 200.532C217.639 200.1 217.057 199.5 216.637 198.732C216.217 197.952 216.007 197.046 216.007 196.014ZM226.835 195.978C226.835 194.97 227.033 194.076 227.429 193.296C227.837 192.516 228.383 191.916 229.067 191.496C229.763 191.076 230.537 190.866 231.389 190.866C232.133 190.866 232.781 191.016 233.333 191.316C233.897 191.616 234.347 191.994 234.683 192.45V191.028H237.221V201H234.683V199.542C234.359 200.01 233.909 200.4 233.333 200.712C232.769 201.012 232.115 201.162 231.371 201.162C230.531 201.162 229.763 200.946 229.067 200.514C228.383 200.082 227.837 199.476 227.429 198.696C227.033 197.904 226.835 196.998 226.835 195.978ZM234.683 196.014C234.683 195.402 234.563 194.88 234.323 194.448C234.083 194.004 233.759 193.668 233.351 193.44C232.943 193.2 232.505 193.08 232.037 193.08C231.569 193.08 231.137 193.194 230.741 193.422C230.345 193.65 230.021 193.986 229.769 194.43C229.529 194.862 229.409 195.378 229.409 195.978C229.409 196.578 229.529 197.106 229.769 197.562C230.021 198.006 230.345 198.348 230.741 198.588C231.149 198.828 231.581 198.948 232.037 198.948C232.505 198.948 232.943 198.834 233.351 198.606C233.759 198.366 234.083 198.03 234.323 197.598C234.563 197.154 234.683 196.626 234.683 196.014ZM242.202 192.576C242.526 192.048 242.946 191.634 243.462 191.334C243.99 191.034 244.59 190.884 245.262 190.884V193.53H244.596C243.804 193.53 243.204 193.716 242.796 194.088C242.4 194.46 242.202 195.108 242.202 196.032V201H239.682V191.028H242.202V192.576ZM256.23 195.798C256.23 196.158 256.206 196.482 256.158 196.77H248.868C248.928 197.49 249.18 198.054 249.624 198.462C250.068 198.87 250.614 199.074 251.262 199.074C252.198 199.074 252.864 198.672 253.26 197.868H255.978C255.69 198.828 255.138 199.62 254.322 200.244C253.506 200.856 252.504 201.162 251.316 201.162C250.356 201.162 249.492 200.952 248.724 200.532C247.968 200.1 247.374 199.494 246.942 198.714C246.522 197.934 246.312 197.034 246.312 196.014C246.312 194.982 246.522 194.076 246.942 193.296C247.362 192.516 247.95 191.916 248.706 191.496C249.462 191.076 250.332 190.866 251.316 190.866C252.264 190.866 253.11 191.07 253.854 191.478C254.61 191.886 255.192 192.468 255.6 193.224C256.02 193.968 256.23 194.826 256.23 195.798ZM253.62 195.078C253.608 194.43 253.374 193.914 252.918 193.53C252.462 193.134 251.904 192.936 251.244 192.936C250.62 192.936 250.092 193.128 249.66 193.512C249.24 193.884 248.982 194.406 248.886 195.078H253.62Z" fill="#0B244A"/>
<path d="M204.634 120.937H199.795V116.098C199.801 115.905 199.767 115.712 199.697 115.531C199.627 115.351 199.521 115.186 199.386 115.047C199.251 114.908 199.089 114.798 198.911 114.722C198.733 114.647 198.541 114.608 198.347 114.608C198.153 114.608 197.961 114.647 197.783 114.722C197.605 114.798 197.443 114.908 197.308 115.047C197.173 115.186 197.067 115.351 196.997 115.531C196.927 115.712 196.893 115.905 196.899 116.098V120.937H192.059C191.682 120.948 191.324 121.105 191.062 121.376C190.799 121.646 190.652 122.008 190.652 122.385C190.652 122.762 190.799 123.124 191.062 123.395C191.324 123.665 191.682 123.822 192.059 123.833H196.898V128.672C196.892 128.866 196.925 129.059 196.996 129.239C197.066 129.42 197.172 129.584 197.307 129.723C197.442 129.862 197.603 129.973 197.782 130.048C197.96 130.124 198.152 130.162 198.346 130.162C198.54 130.162 198.731 130.124 198.91 130.048C199.088 129.973 199.25 129.862 199.385 129.723C199.52 129.584 199.626 129.42 199.696 129.239C199.766 129.059 199.799 128.866 199.794 128.672V123.833H204.633C204.826 123.839 205.019 123.805 205.2 123.735C205.38 123.665 205.545 123.559 205.684 123.424C205.823 123.289 205.933 123.128 206.009 122.949C206.084 122.771 206.123 122.579 206.123 122.385C206.123 122.191 206.084 122 206.009 121.821C205.933 121.643 205.823 121.481 205.684 121.346C205.545 121.211 205.38 121.105 205.2 121.035C205.019 120.965 204.826 120.932 204.633 120.937H204.634Z" fill="#0B244A"/>
<path d="M228.915 119.411L228.416 118.912C227.247 117.745 225.672 117.076 224.021 117.044C222.37 117.012 220.77 117.62 219.557 118.74C219.384 118.9 219.828 118.461 215.24 123.046V109.135C215.17 108.023 214.677 106.981 213.862 106.223C213.047 105.465 211.972 105.047 210.859 105.057H209.06V101.772H210.02C210.778 101.761 211.502 101.458 212.043 100.926C212.584 100.395 212.9 99.6761 212.925 98.9183V93.318C212.911 92.5393 212.604 91.7945 212.066 91.2321C211.527 90.6698 210.796 90.3312 210.018 90.2839H186.675C185.898 90.3312 185.167 90.6698 184.628 91.2321C184.089 91.7945 183.782 92.5393 183.769 93.318V98.9183C183.794 99.6763 184.11 100.395 184.651 100.927C185.192 101.458 185.917 101.761 186.675 101.772H187.437V105.055H185.928C183.669 105.055 181.354 106.917 181.354 109.132V135.466C181.469 136.61 181.997 137.672 182.839 138.455C183.681 139.237 184.779 139.685 185.928 139.716H210.86C211.497 139.711 212.126 139.564 212.699 139.285C213.853 139.731 215.112 139.833 216.323 139.577C217.533 139.322 218.644 138.721 219.52 137.846L228.913 128.453C230.111 127.253 230.784 125.627 230.784 123.932C230.785 122.237 230.112 120.611 228.915 119.411ZM221.424 120.96C222.08 120.306 222.969 119.939 223.895 119.939C224.822 119.939 225.71 120.306 226.366 120.96L226.865 121.459C227.495 122.091 227.86 122.939 227.885 123.831C227.91 124.722 227.594 125.59 227.001 126.256C226.894 126.376 227.273 125.992 223.3 129.965L217.858 124.523L221.424 120.96ZM199.795 98.8764V93.1801H203.353V98.8764H199.795ZM193.108 98.8764V93.1801H196.899V98.8764H193.108ZM210.029 93.348V98.8488C208.772 98.9551 207.508 98.9648 206.249 98.8776V93.1801H209.913C209.964 93.2263 210.005 93.2832 210.033 93.3468L210.029 93.348ZM186.665 98.8488V93.348C186.692 93.2844 186.733 93.2275 186.785 93.1813H190.21V98.8776C189.029 98.9624 187.844 98.9528 186.665 98.8488ZM190.329 101.772H206.159V105.055H190.329V101.772ZM184.247 135.471V109.137C184.247 108.712 185.092 107.952 185.926 107.952H210.858C211.202 107.955 211.535 108.074 211.804 108.289C212.073 108.503 212.263 108.802 212.342 109.137V125.943L209.979 128.307C208.868 129.42 208.206 130.904 208.119 132.474C208.033 134.045 208.528 135.592 209.51 136.821H185.928C185.546 136.787 185.182 136.64 184.884 136.399C184.585 136.158 184.364 135.833 184.249 135.467L184.247 135.471ZM217.466 135.8C217.141 136.125 216.756 136.383 216.332 136.558C215.908 136.734 215.453 136.824 214.995 136.824C214.536 136.824 214.081 136.734 213.657 136.558C213.233 136.383 212.848 136.125 212.524 135.8L212.025 135.302C211.7 134.977 211.442 134.592 211.267 134.168C211.091 133.744 211.001 133.29 211.001 132.831C211.001 132.372 211.091 131.917 211.267 131.493C211.442 131.069 211.7 130.684 212.025 130.36L215.805 126.58L221.253 132.017L217.466 135.8Z" fill="#0B244A"/>
</svg>
