<svg width="413" height="280" viewBox="0 0 413 280" fill="none" xmlns="http://www.w3.org/2000/svg">
<rect x="0.570312" y="0.5" width="411" height="279" fill="#F5F5F5" stroke="#F4F5F7"/>
<path d="M160.517 188.436V201H157.997V188.436H160.517ZM168.533 190.884C169.721 190.884 170.681 191.262 171.413 192.018C172.145 192.762 172.511 193.806 172.511 195.15V201H169.991V195.492C169.991 194.7 169.793 194.094 169.397 193.674C169.001 193.242 168.461 193.026 167.777 193.026C167.081 193.026 166.529 193.242 166.121 193.674C165.725 194.094 165.527 194.7 165.527 195.492V201H163.007V191.028H165.527V192.27C165.863 191.838 166.289 191.502 166.805 191.262C167.333 191.01 167.909 190.884 168.533 190.884ZM180.433 190.884C181.621 190.884 182.581 191.262 183.313 192.018C184.045 192.762 184.411 193.806 184.411 195.15V201H181.891V195.492C181.891 194.7 181.693 194.094 181.297 193.674C180.901 193.242 180.361 193.026 179.677 193.026C178.981 193.026 178.429 193.242 178.021 193.674C177.625 194.094 177.427 194.7 177.427 195.492V201H174.907V191.028H177.427V192.27C177.763 191.838 178.189 191.502 178.705 191.262C179.233 191.01 179.809 190.884 180.433 190.884ZM191.235 201.162C190.275 201.162 189.411 200.952 188.643 200.532C187.875 200.1 187.269 199.494 186.825 198.714C186.393 197.934 186.177 197.034 186.177 196.014C186.177 194.994 186.399 194.094 186.843 193.314C187.299 192.534 187.917 191.934 188.697 191.514C189.477 191.082 190.347 190.866 191.307 190.866C192.267 190.866 193.137 191.082 193.917 191.514C194.697 191.934 195.309 192.534 195.753 193.314C196.209 194.094 196.437 194.994 196.437 196.014C196.437 197.034 196.203 197.934 195.735 198.714C195.279 199.494 194.655 200.1 193.863 200.532C193.083 200.952 192.207 201.162 191.235 201.162ZM191.235 198.966C191.691 198.966 192.117 198.858 192.513 198.642C192.921 198.414 193.245 198.078 193.485 197.634C193.725 197.19 193.845 196.65 193.845 196.014C193.845 195.066 193.593 194.34 193.089 193.836C192.597 193.32 191.991 193.062 191.271 193.062C190.551 193.062 189.945 193.32 189.453 193.836C188.973 194.34 188.733 195.066 188.733 196.014C188.733 196.962 188.967 197.694 189.435 198.21C189.915 198.714 190.515 198.966 191.235 198.966ZM202.444 198.678L204.964 191.028H207.646L203.956 201H200.896L197.224 191.028H199.924L202.444 198.678ZM208.413 195.978C208.413 194.97 208.611 194.076 209.007 193.296C209.415 192.516 209.961 191.916 210.645 191.496C211.341 191.076 212.115 190.866 212.967 190.866C213.711 190.866 214.359 191.016 214.911 191.316C215.475 191.616 215.925 191.994 216.261 192.45V191.028H218.799V201H216.261V199.542C215.937 200.01 215.487 200.4 214.911 200.712C214.347 201.012 213.693 201.162 212.949 201.162C212.109 201.162 211.341 200.946 210.645 200.514C209.961 200.082 209.415 199.476 209.007 198.696C208.611 197.904 208.413 196.998 208.413 195.978ZM216.261 196.014C216.261 195.402 216.141 194.88 215.901 194.448C215.661 194.004 215.337 193.668 214.929 193.44C214.521 193.2 214.083 193.08 213.615 193.08C213.147 193.08 212.715 193.194 212.319 193.422C211.923 193.65 211.599 193.986 211.347 194.43C211.107 194.862 210.987 195.378 210.987 195.978C210.987 196.578 211.107 197.106 211.347 197.562C211.599 198.006 211.923 198.348 212.319 198.588C212.727 198.828 213.159 198.948 213.615 198.948C214.083 198.948 214.521 198.834 214.929 198.606C215.337 198.366 215.661 198.03 215.901 197.598C216.141 197.154 216.261 196.626 216.261 196.014ZM224.195 193.098V197.922C224.195 198.258 224.273 198.504 224.429 198.66C224.597 198.804 224.873 198.876 225.257 198.876H226.427V201H224.843C222.719 201 221.657 199.968 221.657 197.904V193.098H220.469V191.028H221.657V188.562H224.195V191.028H226.427V193.098H224.195ZM229.517 189.84C229.073 189.84 228.701 189.702 228.401 189.426C228.113 189.138 227.969 188.784 227.969 188.364C227.969 187.944 228.113 187.596 228.401 187.32C228.701 187.032 229.073 186.888 229.517 186.888C229.961 186.888 230.327 187.032 230.615 187.32C230.915 187.596 231.065 187.944 231.065 188.364C231.065 188.784 230.915 189.138 230.615 189.426C230.327 189.702 229.961 189.84 229.517 189.84ZM230.759 191.028V201H228.239V191.028H230.759ZM237.677 201.162C236.717 201.162 235.853 200.952 235.085 200.532C234.317 200.1 233.711 199.494 233.267 198.714C232.835 197.934 232.619 197.034 232.619 196.014C232.619 194.994 232.841 194.094 233.285 193.314C233.741 192.534 234.359 191.934 235.139 191.514C235.919 191.082 236.789 190.866 237.749 190.866C238.709 190.866 239.579 191.082 240.359 191.514C241.139 191.934 241.751 192.534 242.195 193.314C242.651 194.094 242.879 194.994 242.879 196.014C242.879 197.034 242.645 197.934 242.177 198.714C241.721 199.494 241.097 200.1 240.305 200.532C239.525 200.952 238.649 201.162 237.677 201.162ZM237.677 198.966C238.133 198.966 238.559 198.858 238.955 198.642C239.363 198.414 239.687 198.078 239.927 197.634C240.167 197.19 240.287 196.65 240.287 196.014C240.287 195.066 240.035 194.34 239.531 193.836C239.039 193.32 238.433 193.062 237.713 193.062C236.993 193.062 236.387 193.32 235.895 193.836C235.415 194.34 235.175 195.066 235.175 196.014C235.175 196.962 235.409 197.694 235.877 198.21C236.357 198.714 236.957 198.966 237.677 198.966ZM250.253 190.884C251.441 190.884 252.401 191.262 253.133 192.018C253.865 192.762 254.231 193.806 254.231 195.15V201H251.711V195.492C251.711 194.7 251.513 194.094 251.117 193.674C250.721 193.242 250.181 193.026 249.497 193.026C248.801 193.026 248.249 193.242 247.841 193.674C247.445 194.094 247.247 194.7 247.247 195.492V201H244.727V191.028H247.247V192.27C247.583 191.838 248.009 191.502 248.525 191.262C249.053 191.01 249.629 190.884 250.253 190.884Z" fill="#0B244A"/>
<path d="M216.38 101.098C213.103 98.4468 208.929 97.1638 204.729 97.517C200.529 97.8702 196.627 99.8324 193.839 102.994C191.051 106.155 189.592 110.271 189.767 114.483C189.942 118.694 191.737 122.675 194.777 125.595C195.993 126.757 196.963 128.153 197.629 129.699C198.294 131.244 198.641 132.908 198.649 134.591V137.661C198.651 138.843 199.121 139.976 199.957 140.811C200.792 141.647 201.925 142.117 203.107 142.118H209.051C210.233 142.117 211.366 141.647 212.202 140.811C213.037 139.976 213.507 138.843 213.509 137.661V133.71C213.554 132.187 213.913 130.689 214.562 129.31C215.211 127.931 216.136 126.701 217.281 125.695C218.978 124.098 220.314 122.156 221.199 120C222.084 117.845 222.498 115.525 222.413 113.196C222.328 110.867 221.746 108.584 220.706 106.498C219.666 104.413 218.193 102.574 216.384 101.104L216.38 101.098ZM209.047 139.146H203.103C202.711 139.144 202.335 138.988 202.058 138.71C201.78 138.433 201.624 138.057 201.622 137.664V136.076H210.537V137.661C210.537 137.856 210.498 138.049 210.423 138.23C210.348 138.41 210.238 138.574 210.1 138.712C209.962 138.85 209.797 138.959 209.617 139.033C209.436 139.108 209.243 139.146 209.047 139.146ZM206.075 122.995L202.043 116.946L203.103 115.886L205.024 117.807C205.162 117.945 205.325 118.054 205.505 118.129C205.686 118.204 205.879 118.242 206.074 118.242C206.269 118.242 206.462 118.204 206.642 118.129C206.822 118.054 206.985 117.945 207.123 117.807L209.044 115.886L210.104 116.946L206.075 122.995ZM215.24 123.525C212.489 125.985 210.806 129.421 210.549 133.103H207.562V126.123L213.174 117.704L216.042 114.837C216.32 114.558 216.477 114.181 216.477 113.787C216.477 113.394 216.32 113.016 216.042 112.738C215.904 112.6 215.741 112.491 215.56 112.416C215.38 112.342 215.187 112.303 214.993 112.303C214.599 112.303 214.222 112.46 213.943 112.738L212.019 114.662L210.095 112.735C209.958 112.597 209.794 112.488 209.614 112.413C209.434 112.338 209.241 112.3 209.046 112.3C208.851 112.3 208.658 112.338 208.478 112.413C208.298 112.488 208.134 112.597 207.997 112.735L206.075 114.662L204.154 112.742C204.016 112.604 203.853 112.494 203.673 112.419C203.493 112.344 203.3 112.306 203.105 112.306C202.91 112.306 202.717 112.344 202.537 112.419C202.357 112.494 202.193 112.604 202.055 112.742L200.131 114.662L198.21 112.742C197.932 112.463 197.554 112.307 197.161 112.307C196.767 112.307 196.39 112.463 196.111 112.742C195.833 113.02 195.677 113.397 195.677 113.791C195.677 114.185 195.833 114.562 196.111 114.84L198.979 117.708L204.591 126.127V133.107H201.546C201.171 129.43 199.499 126.007 196.83 123.451C195.076 121.776 193.811 119.656 193.169 117.318C192.527 114.98 192.532 112.511 193.185 110.176C193.837 107.841 195.112 105.727 196.873 104.06C198.634 102.393 200.815 101.236 203.182 100.713C205.151 100.287 207.19 100.308 209.15 100.773C211.109 101.239 212.94 102.137 214.507 103.402C215.988 104.603 217.195 106.108 218.046 107.814C218.898 109.52 219.375 111.389 219.445 113.294C219.515 115.2 219.177 117.099 218.453 118.863C217.729 120.627 216.637 122.216 215.248 123.524L215.24 123.525Z" fill="#0B244A"/>
<path d="M186.659 113.781C186.659 113.388 186.503 113.011 186.225 112.733C185.948 112.456 185.571 112.3 185.178 112.3H182.197C181.803 112.3 181.425 112.456 181.146 112.735C180.867 113.013 180.711 113.391 180.711 113.785C180.711 114.179 180.867 114.557 181.146 114.836C181.425 115.114 181.803 115.271 182.197 115.271H185.173C185.369 115.272 185.562 115.233 185.743 115.159C185.924 115.084 186.088 114.974 186.227 114.836C186.365 114.697 186.474 114.533 186.549 114.352C186.623 114.171 186.66 113.977 186.659 113.781Z" fill="#0B244A"/>
<path d="M229.95 112.3H226.974C226.579 112.3 226.202 112.456 225.923 112.735C225.644 113.013 225.488 113.391 225.488 113.785C225.488 114.179 225.644 114.557 225.923 114.836C226.202 115.114 226.579 115.271 226.974 115.271H229.945C230.339 115.271 230.717 115.114 230.995 114.836C231.274 114.557 231.431 114.179 231.431 113.785C231.431 113.391 231.274 113.013 230.995 112.735C230.717 112.456 230.339 112.3 229.945 112.3H229.95Z" fill="#0B244A"/>
<path d="M188.802 102.097L186.228 100.615C185.887 100.419 185.482 100.366 185.102 100.468C184.721 100.571 184.397 100.82 184.201 101.161C184.004 101.503 183.952 101.908 184.054 102.288C184.156 102.669 184.406 102.993 184.747 103.189L187.321 104.67C187.49 104.768 187.676 104.831 187.87 104.856C188.063 104.881 188.26 104.868 188.448 104.817C188.636 104.766 188.813 104.679 188.967 104.56C189.122 104.441 189.251 104.293 189.349 104.124C189.446 103.955 189.509 103.769 189.534 103.575C189.559 103.382 189.546 103.185 189.495 102.997C189.445 102.809 189.357 102.632 189.238 102.478C189.12 102.323 188.971 102.194 188.802 102.097Z" fill="#0B244A"/>
<path d="M227.408 124.386L224.834 122.905C224.493 122.709 224.087 122.656 223.707 122.758C223.327 122.861 223.003 123.11 222.806 123.451C222.61 123.793 222.557 124.198 222.66 124.578C222.762 124.958 223.011 125.282 223.353 125.479L225.926 126.96C226.268 127.157 226.673 127.209 227.053 127.107C227.434 127.005 227.758 126.755 227.954 126.414C228.151 126.073 228.203 125.667 228.101 125.287C227.998 124.907 227.749 124.583 227.408 124.386Z" fill="#0B244A"/>
<path d="M194.387 96.2009C194.583 96.5422 194.907 96.7915 195.288 96.8939C195.668 96.9964 196.073 96.9436 196.414 96.7471C196.756 96.5507 197.005 96.2267 197.108 95.8465C197.21 95.4662 197.157 95.0608 196.961 94.7195L195.474 92.1382C195.278 91.7969 194.954 91.5476 194.574 91.4452C194.194 91.3427 193.788 91.3955 193.447 91.592C193.106 91.7884 192.856 92.1124 192.754 92.4926C192.651 92.8729 192.704 93.2783 192.901 93.6196L194.387 96.2009Z" fill="#0B244A"/>
<path d="M187.316 122.9L184.742 124.381C184.573 124.478 184.425 124.608 184.306 124.763C184.187 124.917 184.1 125.094 184.049 125.282C183.998 125.47 183.985 125.667 184.01 125.86C184.036 126.053 184.099 126.24 184.196 126.409C184.293 126.578 184.423 126.726 184.577 126.845C184.732 126.964 184.908 127.051 185.097 127.102C185.285 127.153 185.481 127.166 185.675 127.141C185.868 127.115 186.055 127.052 186.224 126.955L188.797 125.474C189.139 125.277 189.388 124.953 189.491 124.573C189.593 124.193 189.54 123.787 189.344 123.446C189.147 123.105 188.823 122.855 188.443 122.753C188.063 122.651 187.657 122.703 187.316 122.9Z" fill="#0B244A"/>
<path d="M224.833 104.67L227.407 103.189C227.576 103.092 227.724 102.962 227.843 102.808C227.962 102.653 228.049 102.477 228.1 102.288C228.151 102.1 228.164 101.904 228.139 101.71C228.113 101.517 228.05 101.33 227.953 101.161C227.856 100.992 227.726 100.844 227.572 100.725C227.417 100.606 227.241 100.519 227.052 100.468C226.864 100.418 226.668 100.404 226.474 100.43C226.281 100.455 226.094 100.518 225.925 100.615L223.352 102.097C223.01 102.293 222.761 102.617 222.659 102.997C222.556 103.377 222.609 103.783 222.805 104.124C223.002 104.465 223.326 104.715 223.706 104.817C224.086 104.92 224.492 104.867 224.833 104.67Z" fill="#0B244A"/>
<path d="M215.735 96.7452C215.904 96.8433 216.09 96.9071 216.284 96.933C216.477 96.9588 216.674 96.9461 216.862 96.8956C217.051 96.8451 217.228 96.7579 217.383 96.6388C217.537 96.5198 217.667 96.3713 217.764 96.202L219.246 93.6281C219.443 93.2873 219.497 92.882 219.396 92.5012C219.295 92.1205 219.046 91.7956 218.706 91.598C218.365 91.4005 217.959 91.3464 217.579 91.4476C217.198 91.5489 216.873 91.7973 216.675 92.1381L215.194 94.712C215.096 94.8809 215.032 95.0674 215.007 95.261C214.981 95.4546 214.994 95.6513 215.044 95.84C215.095 96.0286 215.182 96.2053 215.301 96.36C215.421 96.5148 215.569 96.6444 215.739 96.7415L215.735 96.7452Z" fill="#0B244A"/>
<path d="M206.077 94.3681C206.272 94.3687 206.466 94.3307 206.646 94.2563C206.827 94.1819 206.991 94.0726 207.129 93.9346C207.267 93.7965 207.376 93.6326 207.451 93.4521C207.525 93.2716 207.563 93.0782 207.563 92.883L207.559 89.9133C207.559 89.5193 207.404 89.1412 207.126 88.8622C206.848 88.5831 206.47 88.4259 206.076 88.4252C205.682 88.4245 205.304 88.5803 205.025 88.8584C204.746 89.1365 204.589 89.514 204.588 89.908L204.592 92.8777C204.591 93.073 204.63 93.2664 204.704 93.4469C204.779 93.6274 204.888 93.7914 205.026 93.9295C205.164 94.0675 205.328 94.1769 205.509 94.2513C205.689 94.3257 205.883 94.3637 206.078 94.3631L206.077 94.3681Z" fill="#0B244A"/>
</svg>
