<svg width="48" height="48" viewBox="0 0 48 48" fill="none" xmlns="http://www.w3.org/2000/svg">
<path d="M23.9967 18.8306C21.4636 18.8306 19.401 20.9277 19.401 23.5044C19.401 26.0822 21.4636 28.1804 23.9967 28.1804C26.5308 28.1804 28.5924 26.0822 28.5924 23.5044C28.5924 20.9277 26.5308 18.8306 23.9967 18.8306ZM23.9967 18.8306C21.4636 18.8306 19.401 20.9277 19.401 23.5044C19.401 26.0822 21.4636 28.1804 23.9967 28.1804C26.5308 28.1804 28.5924 26.0822 28.5924 23.5044C28.5924 20.9277 26.5308 18.8306 23.9967 18.8306ZM31.6527 11.2086H16.3417C13.8978 11.2086 11.9093 13.2314 11.9093 15.7174V31.2925C11.9093 33.7785 13.8978 35.8013 16.3417 35.8013H31.6527C34.0966 35.8013 36.0851 33.7785 36.0851 31.2925V15.7174C36.0851 13.2314 34.0966 11.2086 31.6527 11.2086ZM23.9967 31.6009C19.6089 31.6009 16.0385 27.9689 16.0385 23.5044C16.0385 19.041 19.6089 15.409 23.9967 15.409C28.3855 15.409 31.9559 19.041 31.9559 23.5044C31.9559 27.9689 28.3855 31.6009 23.9967 31.6009ZM32.2115 17.0832C31.1731 17.0832 30.3284 16.2239 30.3284 15.1676C30.3284 14.1113 31.1731 13.2521 32.2115 13.2521C33.2499 13.2521 34.0946 14.1113 34.0946 15.1676C34.0946 16.2239 33.2499 17.0832 32.2115 17.0832ZM23.9967 18.8306C21.4636 18.8306 19.401 20.9277 19.401 23.5044C19.401 26.0822 21.4636 28.1804 23.9967 28.1804C26.5308 28.1804 28.5924 26.0822 28.5924 23.5044C28.5924 20.9277 26.5308 18.8306 23.9967 18.8306ZM31.6527 11.2086H16.3417C13.8978 11.2086 11.9093 13.2314 11.9093 15.7174V31.2925C11.9093 33.7785 13.8978 35.8013 16.3417 35.8013H31.6527C34.0966 35.8013 36.0851 33.7785 36.0851 31.2925V15.7174C36.0851 13.2314 34.0966 11.2086 31.6527 11.2086ZM23.9967 31.6009C19.6089 31.6009 16.0385 27.9689 16.0385 23.5044C16.0385 19.041 19.6089 15.409 23.9967 15.409C28.3855 15.409 31.9559 19.041 31.9559 23.5044C31.9559 27.9689 28.3855 31.6009 23.9967 31.6009ZM32.2115 17.0832C31.1731 17.0832 30.3284 16.2239 30.3284 15.1676C30.3284 14.1113 31.1731 13.2521 32.2115 13.2521C33.2499 13.2521 34.0946 14.1113 34.0946 15.1676C34.0946 16.2239 33.2499 17.0832 32.2115 17.0832ZM23.9967 18.8306C21.4636 18.8306 19.401 20.9277 19.401 23.5044C19.401 26.0822 21.4636 28.1804 23.9967 28.1804C26.5308 28.1804 28.5924 26.0822 28.5924 23.5044C28.5924 20.9277 26.5308 18.8306 23.9967 18.8306ZM0.890625 0V47.0099H47.1038V0H0.890625ZM39.4477 31.2925C39.4477 35.6652 35.9513 39.2219 31.6527 39.2219H16.3417C12.0431 39.2219 8.54668 35.6652 8.54668 31.2925V15.7174C8.54668 11.3448 12.0431 7.78805 16.3417 7.78805H31.6527C35.9513 7.78805 39.4477 11.3448 39.4477 15.7174V31.2925ZM31.6527 11.2086H16.3417C13.8978 11.2086 11.9093 13.2314 11.9093 15.7174V31.2925C11.9093 33.7785 13.8978 35.8013 16.3417 35.8013H31.6527C34.0966 35.8013 36.0851 33.7785 36.0851 31.2925V15.7174C36.0851 13.2314 34.0966 11.2086 31.6527 11.2086ZM23.9967 31.6009C19.6089 31.6009 16.0385 27.9689 16.0385 23.5044C16.0385 19.041 19.6089 15.409 23.9967 15.409C28.3855 15.409 31.9559 19.041 31.9559 23.5044C31.9559 27.9689 28.3855 31.6009 23.9967 31.6009ZM32.2115 17.0832C31.1731 17.0832 30.3284 16.2239 30.3284 15.1676C30.3284 14.1113 31.1731 13.2521 32.2115 13.2521C33.2499 13.2521 34.0946 14.1113 34.0946 15.1676C34.0946 16.2239 33.2499 17.0832 32.2115 17.0832ZM23.9967 18.8306C21.4636 18.8306 19.401 20.9277 19.401 23.5044C19.401 26.0822 21.4636 28.1804 23.9967 28.1804C26.5308 28.1804 28.5924 26.0822 28.5924 23.5044C28.5924 20.9277 26.5308 18.8306 23.9967 18.8306ZM23.9967 18.8306C21.4636 18.8306 19.401 20.9277 19.401 23.5044C19.401 26.0822 21.4636 28.1804 23.9967 28.1804C26.5308 28.1804 28.5924 26.0822 28.5924 23.5044C28.5924 20.9277 26.5308 18.8306 23.9967 18.8306ZM23.9967 18.8306C21.4636 18.8306 19.401 20.9277 19.401 23.5044C19.401 26.0822 21.4636 28.1804 23.9967 28.1804C26.5308 28.1804 28.5924 26.0822 28.5924 23.5044C28.5924 20.9277 26.5308 18.8306 23.9967 18.8306ZM31.6527 11.2086H16.3417C13.8978 11.2086 11.9093 13.2314 11.9093 15.7174V31.2925C11.9093 33.7785 13.8978 35.8013 16.3417 35.8013H31.6527C34.0966 35.8013 36.0851 33.7785 36.0851 31.2925V15.7174C36.0851 13.2314 34.0966 11.2086 31.6527 11.2086ZM23.9967 31.6009C19.6089 31.6009 16.0385 27.9689 16.0385 23.5044C16.0385 19.041 19.6089 15.409 23.9967 15.409C28.3855 15.409 31.9559 19.041 31.9559 23.5044C31.9559 27.9689 28.3855 31.6009 23.9967 31.6009ZM32.2115 17.0832C31.1731 17.0832 30.3284 16.2239 30.3284 15.1676C30.3284 14.1113 31.1731 13.2521 32.2115 13.2521C33.2499 13.2521 34.0946 14.1113 34.0946 15.1676C34.0946 16.2239 33.2499 17.0832 32.2115 17.0832ZM23.9967 18.8306C21.4636 18.8306 19.401 20.9277 19.401 23.5044C19.401 26.0822 21.4636 28.1804 23.9967 28.1804C26.5308 28.1804 28.5924 26.0822 28.5924 23.5044C28.5924 20.9277 26.5308 18.8306 23.9967 18.8306ZM23.9967 18.8306C21.4636 18.8306 19.401 20.9277 19.401 23.5044C19.401 26.0822 21.4636 28.1804 23.9967 28.1804C26.5308 28.1804 28.5924 26.0822 28.5924 23.5044C28.5924 20.9277 26.5308 18.8306 23.9967 18.8306ZM23.9967 18.8306C21.4636 18.8306 19.401 20.9277 19.401 23.5044C19.401 26.0822 21.4636 28.1804 23.9967 28.1804C26.5308 28.1804 28.5924 26.0822 28.5924 23.5044C28.5924 20.9277 26.5308 18.8306 23.9967 18.8306ZM31.6527 11.2086H16.3417C13.8978 11.2086 11.9093 13.2314 11.9093 15.7174V31.2925C11.9093 33.7785 13.8978 35.8013 16.3417 35.8013H31.6527C34.0966 35.8013 36.0851 33.7785 36.0851 31.2925V15.7174C36.0851 13.2314 34.0966 11.2086 31.6527 11.2086ZM23.9967 31.6009C19.6089 31.6009 16.0385 27.9689 16.0385 23.5044C16.0385 19.041 19.6089 15.409 23.9967 15.409C28.3855 15.409 31.9559 19.041 31.9559 23.5044C31.9559 27.9689 28.3855 31.6009 23.9967 31.6009ZM32.2115 17.0832C31.1731 17.0832 30.3284 16.2239 30.3284 15.1676C30.3284 14.1113 31.1731 13.2521 32.2115 13.2521C33.2499 13.2521 34.0946 14.1113 34.0946 15.1676C34.0946 16.2239 33.2499 17.0832 32.2115 17.0832ZM23.9967 18.8306C21.4636 18.8306 19.401 20.9277 19.401 23.5044C19.401 26.0822 21.4636 28.1804 23.9967 28.1804C26.5308 28.1804 28.5924 26.0822 28.5924 23.5044C28.5924 20.9277 26.5308 18.8306 23.9967 18.8306Z" fill="white"/>
</svg>
