<svg width="48" height="48" viewBox="0 0 48 48" fill="none" xmlns="http://www.w3.org/2000/svg">
<path fill-rule="evenodd" clip-rule="evenodd" d="M26.4031 21.1134V21.0447C26.389 21.0677 26.3696 21.0908 26.3574 21.1134H26.4031Z" fill="white"/>
<path fill-rule="evenodd" clip-rule="evenodd" d="M0.945312 0V47.0099H47.9552V0H0.945312ZM15.5672 39.0546H8.59254V18.071H15.5672V39.0546ZM12.0798 15.207H12.0338C9.69412 15.207 8.17761 13.5952 8.17761 11.5805C8.17761 9.52152 9.73844 7.95532 12.1255 7.95532C14.5131 7.95532 15.9803 9.52152 16.026 11.5805C16.026 13.5952 14.5131 15.207 12.0798 15.207ZM40.7229 39.0546H33.7465V27.8283C33.7465 25.0087 32.7385 23.0839 30.2135 23.0839C28.2851 23.0839 27.1392 24.3799 26.6344 25.6352C26.4509 26.0836 26.403 26.7069 26.403 27.3357V39.0547H19.4252C19.4252 39.0547 19.5187 20.0397 19.4252 18.0711H26.403V21.0445C27.3301 19.618 28.9845 17.5785 32.6905 17.5785C37.2817 17.5785 40.7229 20.5768 40.7229 27.0216V39.0546Z" fill="white"/>
</svg>
