<svg width="413" height="280" viewBox="0 0 413 280" fill="none" xmlns="http://www.w3.org/2000/svg">
<rect x="0.570312" y="0.5" width="411" height="279" fill="#F5F5F5" stroke="#F4F5F7"/>
<path d="M162.267 188.436V190.47H158.919V201H156.399V190.47H153.051V188.436H162.267ZM173.375 195.798C173.375 196.158 173.351 196.482 173.303 196.77H166.013C166.073 197.49 166.325 198.054 166.769 198.462C167.213 198.87 167.759 199.074 168.407 199.074C169.343 199.074 170.009 198.672 170.405 197.868H173.123C172.835 198.828 172.283 199.62 171.467 200.244C170.651 200.856 169.649 201.162 168.461 201.162C167.501 201.162 166.637 200.952 165.869 200.532C165.113 200.1 164.519 199.494 164.087 198.714C163.667 197.934 163.457 197.034 163.457 196.014C163.457 194.982 163.667 194.076 164.087 193.296C164.507 192.516 165.095 191.916 165.851 191.496C166.607 191.076 167.477 190.866 168.461 190.866C169.409 190.866 170.255 191.07 170.999 191.478C171.755 191.886 172.337 192.468 172.745 193.224C173.165 193.968 173.375 194.826 173.375 195.798ZM170.765 195.078C170.753 194.43 170.519 193.914 170.063 193.53C169.607 193.134 169.049 192.936 168.389 192.936C167.765 192.936 167.237 193.128 166.805 193.512C166.385 193.884 166.127 194.406 166.031 195.078H170.765ZM174.567 196.014C174.567 194.982 174.777 194.082 175.197 193.314C175.617 192.534 176.199 191.934 176.943 191.514C177.687 191.082 178.539 190.866 179.499 190.866C180.735 190.866 181.755 191.178 182.559 191.802C183.375 192.414 183.921 193.278 184.197 194.394H181.479C181.335 193.962 181.089 193.626 180.741 193.386C180.405 193.134 179.985 193.008 179.481 193.008C178.761 193.008 178.191 193.272 177.771 193.8C177.351 194.316 177.141 195.054 177.141 196.014C177.141 196.962 177.351 197.7 177.771 198.228C178.191 198.744 178.761 199.002 179.481 199.002C180.501 199.002 181.167 198.546 181.479 197.634H184.197C183.921 198.714 183.375 199.572 182.559 200.208C181.743 200.844 180.723 201.162 179.499 201.162C178.539 201.162 177.687 200.952 176.943 200.532C176.199 200.1 175.617 199.5 175.197 198.732C174.777 197.952 174.567 197.046 174.567 196.014ZM191.659 190.884C192.415 190.884 193.087 191.052 193.675 191.388C194.263 191.712 194.719 192.198 195.043 192.846C195.379 193.482 195.547 194.25 195.547 195.15V201H193.027V195.492C193.027 194.7 192.829 194.094 192.433 193.674C192.037 193.242 191.497 193.026 190.813 193.026C190.117 193.026 189.565 193.242 189.157 193.674C188.761 194.094 188.563 194.7 188.563 195.492V201H186.043V187.68H188.563V192.27C188.887 191.838 189.319 191.502 189.859 191.262C190.399 191.01 190.999 190.884 191.659 190.884ZM203.469 190.884C204.657 190.884 205.617 191.262 206.349 192.018C207.081 192.762 207.447 193.806 207.447 195.15V201H204.927V195.492C204.927 194.7 204.729 194.094 204.333 193.674C203.937 193.242 203.397 193.026 202.713 193.026C202.017 193.026 201.465 193.242 201.057 193.674C200.661 194.094 200.463 194.7 200.463 195.492V201H197.943V191.028H200.463V192.27C200.799 191.838 201.225 191.502 201.741 191.262C202.269 191.01 202.845 190.884 203.469 190.884ZM214.272 201.162C213.312 201.162 212.448 200.952 211.68 200.532C210.912 200.1 210.306 199.494 209.862 198.714C209.43 197.934 209.214 197.034 209.214 196.014C209.214 194.994 209.436 194.094 209.88 193.314C210.336 192.534 210.954 191.934 211.734 191.514C212.514 191.082 213.384 190.866 214.344 190.866C215.304 190.866 216.174 191.082 216.954 191.514C217.734 191.934 218.346 192.534 218.79 193.314C219.246 194.094 219.474 194.994 219.474 196.014C219.474 197.034 219.24 197.934 218.772 198.714C218.316 199.494 217.692 200.1 216.9 200.532C216.12 200.952 215.244 201.162 214.272 201.162ZM214.272 198.966C214.728 198.966 215.154 198.858 215.55 198.642C215.958 198.414 216.282 198.078 216.522 197.634C216.762 197.19 216.882 196.65 216.882 196.014C216.882 195.066 216.63 194.34 216.126 193.836C215.634 193.32 215.028 193.062 214.308 193.062C213.588 193.062 212.982 193.32 212.49 193.836C212.01 194.34 211.77 195.066 211.77 196.014C211.77 196.962 212.004 197.694 212.472 198.21C212.952 198.714 213.552 198.966 214.272 198.966ZM223.842 187.68V201H221.322V187.68H223.842ZM230.76 201.162C229.8 201.162 228.936 200.952 228.168 200.532C227.4 200.1 226.794 199.494 226.35 198.714C225.918 197.934 225.702 197.034 225.702 196.014C225.702 194.994 225.924 194.094 226.368 193.314C226.824 192.534 227.442 191.934 228.222 191.514C229.002 191.082 229.872 190.866 230.832 190.866C231.792 190.866 232.662 191.082 233.442 191.514C234.222 191.934 234.834 192.534 235.278 193.314C235.734 194.094 235.962 194.994 235.962 196.014C235.962 197.034 235.728 197.934 235.26 198.714C234.804 199.494 234.18 200.1 233.388 200.532C232.608 200.952 231.732 201.162 230.76 201.162ZM230.76 198.966C231.216 198.966 231.642 198.858 232.038 198.642C232.446 198.414 232.77 198.078 233.01 197.634C233.25 197.19 233.37 196.65 233.37 196.014C233.37 195.066 233.118 194.34 232.614 193.836C232.122 193.32 231.516 193.062 230.796 193.062C230.076 193.062 229.47 193.32 228.978 193.836C228.498 194.34 228.258 195.066 228.258 196.014C228.258 196.962 228.492 197.694 228.96 198.21C229.44 198.714 230.04 198.966 230.76 198.966ZM241.716 190.866C242.46 190.866 243.114 191.016 243.678 191.316C244.242 191.604 244.686 191.982 245.01 192.45V191.028H247.548V201.072C247.548 201.996 247.362 202.818 246.99 203.538C246.618 204.27 246.06 204.846 245.316 205.266C244.572 205.698 243.672 205.914 242.616 205.914C241.2 205.914 240.036 205.584 239.124 204.924C238.224 204.264 237.714 203.364 237.594 202.224H240.096C240.228 202.68 240.51 203.04 240.942 203.304C241.386 203.58 241.92 203.718 242.544 203.718C243.276 203.718 243.87 203.496 244.326 203.052C244.782 202.62 245.01 201.96 245.01 201.072V199.524C244.686 199.992 244.236 200.382 243.66 200.694C243.096 201.006 242.448 201.162 241.716 201.162C240.876 201.162 240.108 200.946 239.412 200.514C238.716 200.082 238.164 199.476 237.756 198.696C237.36 197.904 237.162 196.998 237.162 195.978C237.162 194.97 237.36 194.076 237.756 193.296C238.164 192.516 238.71 191.916 239.394 191.496C240.09 191.076 240.864 190.866 241.716 190.866ZM245.01 196.014C245.01 195.402 244.89 194.88 244.65 194.448C244.41 194.004 244.086 193.668 243.678 193.44C243.27 193.2 242.832 193.08 242.364 193.08C241.896 193.08 241.464 193.194 241.068 193.422C240.672 193.65 240.348 193.986 240.096 194.43C239.856 194.862 239.736 195.378 239.736 195.978C239.736 196.578 239.856 197.106 240.096 197.562C240.348 198.006 240.672 198.348 241.068 198.588C241.476 198.828 241.908 198.948 242.364 198.948C242.832 198.948 243.27 198.834 243.678 198.606C244.086 198.366 244.41 198.03 244.65 197.598C244.89 197.154 245.01 196.626 245.01 196.014ZM259.55 191.028L253.376 205.716H250.694L252.854 200.748L248.858 191.028H251.684L254.258 197.994L256.868 191.028H259.55Z" fill="#0B244A"/>
<path d="M184.944 106.397C186.526 106.397 188.079 105.969 189.438 105.157C190.796 104.345 191.908 103.179 192.657 101.785C193.136 101.028 193.805 100.409 194.597 99.99C195.389 99.5707 196.277 99.3654 197.173 99.3944H200.957C201.837 99.3667 202.708 99.5736 203.482 99.9937C204.256 100.414 204.904 101.032 205.36 101.785C206.283 103.503 207.754 104.864 209.538 105.651C211.323 106.439 213.319 106.608 215.211 106.132C217.102 105.656 218.781 104.562 219.98 103.023C221.179 101.485 221.83 99.5904 221.83 97.6398C221.83 95.6893 221.179 93.7946 219.98 92.2562C218.781 90.7178 217.102 89.6238 215.211 89.1478C213.319 88.6717 211.323 88.8408 209.538 89.6282C207.754 90.4156 206.283 91.7763 205.36 93.4945C204.904 94.2476 204.256 94.8659 203.482 95.286C202.708 95.7061 201.837 95.9129 200.957 95.8853H197.173C196.277 95.9143 195.389 95.709 194.597 95.2897C193.805 94.8704 193.136 94.2516 192.657 93.4945C191.924 92.1303 190.843 90.9849 189.523 90.1749C188.203 89.365 186.692 88.9195 185.144 88.8839C183.596 88.8483 182.066 89.2239 180.71 89.9723C179.354 90.7208 178.221 91.8153 177.427 93.1444C176.632 94.4734 176.204 95.9895 176.186 97.5379C176.168 99.0863 176.561 100.612 177.325 101.959C178.089 103.306 179.197 104.426 180.535 105.205C181.873 105.985 183.394 106.395 184.943 106.395L184.944 106.397ZM208.453 95.1548C209.007 94.1233 209.889 93.3063 210.96 92.8334C212.031 92.3604 213.229 92.2586 214.364 92.544C215.499 92.8295 216.507 93.4858 217.227 94.409C217.946 95.3321 218.337 96.4692 218.337 97.6398C218.337 98.8104 217.946 99.9475 217.227 100.871C216.507 101.794 215.499 102.45 214.364 102.736C213.229 103.021 212.031 102.919 210.96 102.446C209.889 101.973 209.007 101.156 208.453 100.125C207.927 99.1533 207.199 98.3059 206.317 97.6398C207.198 96.9738 207.925 96.1269 208.451 95.1561L208.453 95.1548ZM184.944 92.3868C185.894 92.3864 186.826 92.6436 187.641 93.131C188.457 93.6184 189.125 94.3178 189.574 95.1548C190.109 96.1334 190.854 96.9819 191.755 97.6398C190.854 98.2977 190.109 99.1463 189.574 100.125C189.135 100.944 188.486 101.631 187.694 102.117C186.902 102.604 185.995 102.871 185.067 102.893C184.138 102.914 183.219 102.689 182.406 102.24C181.592 101.791 180.912 101.135 180.435 100.337C179.958 99.54 179.701 98.6303 179.69 97.7012C179.679 96.772 179.915 95.8566 180.374 95.0483C180.832 94.24 181.496 93.5676 182.299 93.0998C183.102 92.632 184.015 92.3855 184.944 92.3854V92.3868Z" fill="#0B244A"/>
<path d="M211.329 95.8892H214.831V99.3917H211.329V95.8892Z" fill="#0B244A"/>
<path d="M184.944 141.422C186.527 141.422 188.08 140.994 189.438 140.182C190.797 139.37 191.91 138.205 192.658 136.81C193.114 136.057 193.762 135.439 194.536 135.019C195.31 134.598 196.181 134.392 197.061 134.419H200.962C201.842 134.392 202.714 134.598 203.487 135.019C204.261 135.439 204.909 136.057 205.365 136.81C206.289 138.528 207.759 139.889 209.544 140.676C211.328 141.464 213.325 141.633 215.216 141.157C217.108 140.681 218.786 139.587 219.985 138.048C221.185 136.51 221.836 134.615 221.836 132.665C221.836 130.714 221.185 128.819 219.985 127.281C218.786 125.743 217.108 124.649 215.216 124.173C213.325 123.697 211.328 123.866 209.544 124.653C207.759 125.441 206.289 126.801 205.365 128.519C204.909 129.272 204.261 129.891 203.487 130.311C202.714 130.731 201.842 130.938 200.962 130.91H197.061C196.181 130.938 195.31 130.731 194.536 130.311C193.762 129.891 193.114 129.272 192.658 128.519C191.925 127.155 190.844 126.01 189.524 125.2C188.204 124.39 186.693 123.944 185.145 123.909C183.597 123.873 182.067 124.249 180.712 124.997C179.356 125.746 178.223 126.84 177.428 128.169C176.633 129.498 176.205 131.014 176.188 132.563C176.17 134.111 176.563 135.637 177.327 136.984C178.091 138.331 179.198 139.451 180.536 140.23C181.875 141.01 183.395 141.42 184.944 141.42V141.422ZM208.453 130.18C209.007 129.148 209.889 128.331 210.96 127.858C212.031 127.385 213.229 127.283 214.364 127.569C215.499 127.854 216.507 128.511 217.227 129.434C217.947 130.357 218.337 131.494 218.337 132.665C218.337 133.835 217.947 134.972 217.227 135.896C216.507 136.819 215.499 137.475 214.364 137.761C213.229 138.046 212.031 137.944 210.96 137.471C209.889 136.998 209.007 136.181 208.453 135.15C207.927 134.178 207.199 133.331 206.318 132.665C207.198 131.998 207.925 131.151 208.451 130.18H208.453ZM184.944 127.41C185.894 127.41 186.826 127.667 187.642 128.155C188.457 128.643 189.125 129.342 189.574 130.18C190.1 131.151 190.828 131.999 191.71 132.665C190.828 133.331 190.1 134.178 189.574 135.15C189.135 135.969 188.486 136.656 187.694 137.142C186.902 137.629 185.996 137.896 185.067 137.918C184.138 137.939 183.22 137.714 182.406 137.265C181.592 136.816 180.912 136.16 180.435 135.362C179.958 134.565 179.701 133.655 179.69 132.726C179.68 131.797 179.915 130.881 180.374 130.073C180.832 129.265 181.496 128.592 182.299 128.125C183.102 127.657 184.015 127.41 184.944 127.41Z" fill="#0B244A"/>
<path d="M211.329 130.914H214.831V134.417H211.329V130.914Z" fill="#0B244A"/>
<path d="M219.377 111.008C218.921 111.761 218.272 112.38 217.499 112.8C216.725 113.22 215.854 113.427 214.974 113.399H211.189C210.309 113.427 209.438 113.22 208.664 112.8C207.891 112.38 207.242 111.761 206.786 111.008C205.863 109.29 204.393 107.929 202.608 107.142C200.823 106.355 198.827 106.185 196.936 106.662C195.044 107.138 193.365 108.232 192.166 109.77C190.967 111.308 190.316 113.203 190.316 115.154C190.316 117.104 190.967 118.999 192.166 120.537C193.365 122.076 195.044 123.17 196.936 123.646C198.827 124.122 200.823 123.953 202.608 123.165C204.393 122.378 205.863 121.017 206.786 119.299C207.242 118.546 207.891 117.928 208.664 117.507C209.438 117.087 210.309 116.881 211.189 116.908H214.974C215.854 116.881 216.725 117.087 217.499 117.507C218.272 117.928 218.921 118.546 219.377 119.299C220.125 120.693 221.238 121.859 222.596 122.671C223.955 123.483 225.508 123.911 227.091 123.911C228.25 123.925 229.4 123.709 230.475 123.275C231.55 122.842 232.528 122.199 233.353 121.384C234.177 120.57 234.832 119.6 235.279 118.53C235.726 117.461 235.956 116.313 235.956 115.154C235.956 113.995 235.726 112.848 235.279 111.778C234.832 110.709 234.177 109.739 233.353 108.924C232.528 108.11 231.55 107.467 230.475 107.033C229.4 106.6 228.25 106.384 227.091 106.398C225.508 106.397 223.955 106.825 222.597 107.637C221.238 108.449 220.125 109.614 219.377 111.008ZM203.704 117.639C203.15 118.67 202.268 119.487 201.197 119.96C200.126 120.433 198.928 120.535 197.793 120.249C196.658 119.964 195.65 119.308 194.93 118.385C194.211 117.461 193.82 116.324 193.82 115.154C193.82 113.983 194.211 112.846 194.93 111.923C195.65 111 196.658 110.343 197.793 110.058C198.928 109.772 200.126 109.874 201.197 110.347C202.268 110.82 203.15 111.637 203.704 112.669C204.23 113.64 204.958 114.488 205.839 115.154C204.957 115.819 204.228 116.667 203.701 117.639H203.704ZM222.463 112.669C222.913 111.832 223.581 111.132 224.396 110.645C225.211 110.157 226.144 109.9 227.094 109.901C227.79 109.889 228.483 110.017 229.13 110.276C229.777 110.535 230.366 110.921 230.863 111.409C231.36 111.898 231.754 112.481 232.023 113.124C232.293 113.767 232.431 114.457 232.431 115.154C232.431 115.851 232.293 116.541 232.023 117.184C231.754 117.827 231.36 118.41 230.863 118.899C230.366 119.388 229.777 119.773 229.13 120.032C228.483 120.291 227.79 120.419 227.094 120.408C226.144 120.408 225.211 120.151 224.396 119.664C223.581 119.176 222.913 118.477 222.463 117.64C221.937 116.668 221.209 115.821 220.328 115.155C221.207 114.488 221.933 113.64 222.457 112.669H222.463Z" fill="#0B244A"/>
<path d="M197.319 113.402H200.821V116.904H197.319V113.402Z" fill="#0B244A"/>
</svg>
