<svg width="47" height="48" viewBox="0 0 47 48" fill="none" xmlns="http://www.w3.org/2000/svg">
<path d="M23.1684 9.83252C15.7784 9.83252 9.76611 15.9484 9.76611 23.4659C9.76611 26.0853 10.4979 28.6289 11.8823 30.8218L12.215 31.3488L10.9115 36.0586L15.7016 34.8043L16.1957 35.1111C18.2901 36.4118 20.7013 37.0993 23.1684 37.0993C30.5585 37.0993 36.5707 30.9834 36.5707 23.4659C36.5707 15.9484 30.5585 9.83252 23.1684 9.83252ZM31.3869 27.6561L31.2196 28.4506C31.031 29.347 30.5077 30.1399 29.7485 30.6339C28.7899 31.2577 27.5474 31.5639 25.9681 31.1096C21.0669 29.6998 18.2951 26.399 16.8079 24.3359C15.3206 22.2728 14.7461 20.2098 15.1178 18.525C15.3672 17.3951 16.179 16.5281 16.6868 16.0795C16.9355 15.8597 17.2582 15.7479 17.587 15.7662L18.6343 15.8243C18.8406 15.8357 19.0225 15.9653 19.1037 16.1585L20.6294 19.7895C20.7109 19.9836 20.6765 20.2078 20.5409 20.3674L19.213 21.9302C19.1053 22.0568 19.0865 22.2374 19.1624 22.386C20.9114 25.8132 24.0989 27.1712 25.0505 27.5114C25.2126 27.5693 25.3923 27.5146 25.4974 27.376L26.8869 25.5436C27.0415 25.3398 27.3139 25.2717 27.5437 25.3795L31.0833 27.0391C31.3139 27.1473 31.44 27.4036 31.3869 27.6561Z" fill="white"/>
<path d="M0.0410156 0V47.0099H46.2542V0H0.0410156ZM23.1684 39.8845C20.3953 39.8845 17.6799 39.1625 15.2777 37.7914L6.98661 39.9624L9.25026 31.7841C7.7946 29.2685 7.02819 26.4063 7.02819 23.466C7.02819 14.4128 14.2687 7.0475 23.1684 7.0475C32.0682 7.0475 39.3086 14.4128 39.3086 23.466C39.3086 32.5192 32.0682 39.8845 23.1684 39.8845Z" fill="white"/>
</svg>
