<svg width="48" height="48" viewBox="0 0 48 48" fill="none" xmlns="http://www.w3.org/2000/svg">
<path d="M23.9848 10.5107C16.5948 10.5107 10.5825 16.6267 10.5825 24.1441C10.5825 26.7635 11.3144 29.3071 12.6987 31.5001L13.0314 32.0271L11.7279 36.7368L16.518 35.4825L17.0121 35.7894C19.1065 37.09 21.5177 37.7775 23.9848 37.7775C31.3749 37.7775 37.3871 31.6616 37.3871 24.1441C37.3871 16.6267 31.3749 10.5107 23.9848 10.5107ZM32.2033 28.3343L32.036 29.1288C31.8474 30.0252 31.3241 30.8181 30.5649 31.3121C29.6063 31.9359 28.3638 32.2421 26.7845 31.7879C21.8833 30.3781 19.1115 27.0772 17.6243 25.0141C16.137 22.9511 15.5625 20.888 15.9342 19.2032C16.1836 18.0733 16.9954 17.2063 17.5032 16.7577C17.7519 16.538 18.0746 16.4261 18.4034 16.4444L19.4507 16.5025C19.657 16.5139 19.8389 16.6435 19.9201 16.8367L21.4458 20.4678C21.5273 20.6618 21.4929 20.8861 21.3574 21.0456L20.0294 22.6084C19.9217 22.7351 19.9029 22.9156 19.9788 23.0642C21.7278 26.4914 24.9153 27.8494 25.8669 28.1896C26.0291 28.2476 26.2087 28.1928 26.3138 28.0542L27.7033 26.2218C27.8579 26.018 28.1304 25.9499 28.3601 26.0577L31.8997 27.7173C32.1304 27.8256 32.2564 28.0818 32.2033 28.3343Z" fill="#06B58C"/>
<path d="M0.857422 0.678467V47.6884H47.0706V0.678467H0.857422ZM23.9848 40.563C21.2117 40.563 18.4963 39.8409 16.0941 38.4698L7.80302 40.6409L10.0667 32.4625C8.61101 29.9469 7.84459 27.0848 7.84459 24.1445C7.84459 15.0913 15.0851 7.72597 23.9848 7.72597C32.8846 7.72597 40.125 15.0913 40.125 24.1445C40.125 33.1977 32.8846 40.563 23.9848 40.563Z" fill="#06B58C"/>
</svg>
