<svg width="28" height="58" viewBox="0 0 28 58" fill="none" xmlns="http://www.w3.org/2000/svg">
<path d="M17.0369 57.9711C17.0369 57.9711 -1.86658 44.1081 19.559 27.7321C21.3342 26.463 22.7376 24.7422 23.6239 22.7481C24.5102 20.754 24.847 18.5592 24.5995 16.3911C24.5995 16.3911 -13.2058 32.7634 17.0369 57.9656" fill="white"/>
<path d="M10.7328 52.9302C-20.7737 20.1636 27.1161 0 27.1161 0C27.1161 0 28.378 11.341 15.7751 20.16C-5.64683 36.5469 10.7328 52.9302 10.7328 52.9302Z" fill="white"/>
<path d="M12.7522 52.7665C12.7522 52.7665 7.98589 43.9366 18.0686 37.6415C21.8471 35.1213 21.8471 28.8115 21.8471 28.8115C21.8471 28.8115 3.11469 36.3133 12.7522 52.7665Z" fill="white"/>
</svg>
